<svg width="113" height="32" viewBox="0 0 113 32" fill="none" xmlns="http://www.w3.org/2000/svg">
<path d="M9.53186 2.88681V5.74638L12.7455 5.85532C16.5855 5.99149 18.3829 6.59064 20.3982 8.41532C22.468 10.2672 23.2578 12.1191 23.3668 15.36C23.5029 18.4102 23.0672 20.2621 21.8144 22.1685C20.017 24.8647 17.1029 26.1447 11.9829 26.417L8.71484 26.5804V29.3038V32L12.8817 31.8911C16.4765 31.7821 17.2936 31.6732 19.1999 31.0196C21.9234 30.0936 24.7557 28.2145 26.1991 26.3898C28.6229 23.3396 29.8485 19.2272 29.5761 15.0604C29.2493 10.4851 28.0782 7.68 25.2187 4.82043C22.0051 1.63404 18.8731 0.435745 13.0178 0.163405L9.53186 5.75557e-07V2.88681Z" fill="#243750"/>
<path d="M93.6302 1.33472C88.8642 2.47855 84.7519 6.29132 83.3357 10.9211C83.0361 11.8743 82.791 12.773 82.791 12.9092C82.791 13.0454 84.0438 13.1543 85.5961 13.1543H88.4012L89.0276 11.6564C89.8446 9.72281 91.6421 7.87089 93.6029 6.97217C95.5638 6.07345 98.5323 5.96451 100.684 6.69983C102.672 7.38068 104.633 9.2326 105.695 11.4113L106.566 13.1543H109.344H112.149L111.904 11.9832C111.414 9.80451 109.78 6.9177 107.983 5.12026C104.415 1.5526 98.8046 0.0547235 93.6302 1.33472Z" fill="#243750"/>
<path d="M57.1914 15.9865V30.584H59.9148H62.6382V26.0904V21.5967H65.5795C71.7344 21.5967 75.4382 19.7448 77.1812 15.8776C79.1693 11.4385 77.8348 5.90994 74.1582 3.43164C71.6255 1.7159 71.0535 1.60696 63.8093 1.49803L57.1914 1.38909V15.9865ZM70.0186 7.24441C72.851 8.71505 73.314 13.0453 70.8357 15.1423C69.6646 16.1227 68.4118 16.4223 65.3072 16.4223H62.6382V11.5202V6.61803H65.7157C68.4118 6.61803 68.9837 6.69973 70.0186 7.24441Z" fill="#243750"/>
<path d="M0 2.66863V5.25586H4.08511H8.17021V2.66863V0.0813917H4.08511H0V2.66863Z" fill="#FF6200"/>
<path d="M34.9137 3.94874L34.9954 6.48151L43.2474 6.56321L51.472 6.61768V4.03044V1.44321H43.1656H34.832L34.9137 3.94874Z" fill="#FF6200"/>
<path d="M0 9.47722V12.0645H5.58298H11.166V9.47722V6.88999H5.58298H0V9.47722Z" fill="#FF6200"/>
<path d="M93.7938 12.0647C93.1401 12.3098 92.3231 13.3447 92.3231 13.8893C92.3231 14.4612 93.6304 14.2978 93.9572 13.6987C94.284 13.0995 95.2916 12.9634 95.8091 13.4808C96.4355 14.1072 96.1359 14.8425 94.5018 16.531C93.6031 17.457 92.7044 18.6825 92.4593 19.2272L92.0508 20.2349H94.7742H97.4976V19.554C97.4976 18.9004 97.4159 18.8732 95.9997 18.8732C95.1827 18.8732 94.5018 18.7915 94.5018 18.6825C94.5018 18.6008 95.1827 17.811 95.9997 16.9395C97.2252 15.6595 97.4976 15.1966 97.4976 14.434C97.4976 13.0995 97.2797 12.6366 96.381 12.2008C95.5367 11.7378 94.6652 11.7106 93.7938 12.0647Z" fill="#FF6200"/>
<path d="M100.14 14.6247C99.1052 16.2042 98.3154 17.7021 98.3698 17.9744C98.4515 18.3829 98.7784 18.4919 100.167 18.5464C101.829 18.6281 101.856 18.6281 101.856 19.4178C101.856 20.0987 101.965 20.2349 102.537 20.2349C103.109 20.2349 103.217 20.0987 103.217 19.4178C103.217 18.7915 103.326 18.6008 103.762 18.6008C104.171 18.6008 104.307 18.4102 104.307 17.92C104.307 17.4298 104.171 17.2391 103.762 17.2391C103.245 17.2391 103.217 17.0485 103.217 14.5157C103.217 11.874 103.19 11.7923 102.618 11.7923C102.128 11.7923 101.583 12.4459 100.14 14.6247ZM101.856 15.7412V17.2391H100.903C100.385 17.2391 99.9494 17.1847 99.9494 17.1302C99.9494 16.9395 101.638 14.2434 101.747 14.2434C101.801 14.2434 101.856 14.9242 101.856 15.7412Z" fill="#FF6200"/>
<path d="M34.9137 15.9316L34.9954 18.4644L43.2474 18.5461L51.472 18.6006V16.0134V13.4261H43.1656H34.832L34.9137 15.9316Z" fill="#FF6200"/>
<path d="M0 16.2858V18.873H6.4H12.8V16.2858V13.6986H6.4H0V16.2858Z" fill="#FF6200"/>
<path d="M82.791 18.955C82.791 19.1456 82.9817 19.9899 83.2268 20.8069C84.6429 25.5729 88.5919 29.4401 93.4395 30.7201C95.4548 31.2648 99.7306 31.2375 101.61 30.6929C105.123 29.658 107.983 27.5882 109.78 24.7831C110.842 23.149 111.714 21.0792 112.013 19.4724L112.177 18.6009H109.399H106.594L105.831 20.3712C104.006 24.5652 99.8395 26.6622 95.237 25.6818C92.4046 25.1099 89.8719 22.8222 88.8642 19.9626L88.374 18.6009H85.5961C83.4446 18.6009 82.791 18.6826 82.791 18.955Z" fill="#FF6200"/>
<path d="M0 22.8219V25.4092H5.0383H10.0766V22.8219V20.2347H5.0383H0V22.8219Z" fill="#FF6200"/>
<path d="M35.05 25.5997C34.9411 25.6814 34.8594 26.8524 34.8594 28.1869V30.5835H43.4381H52.0441L51.9623 28.0507L51.8806 25.5452L43.547 25.4635C38.9717 25.4363 35.1589 25.4907 35.05 25.5997Z" fill="#FF6200"/>
<path d="M0 29.3581V31.9453H3.6766H7.35319V29.3581V26.7708H3.6766H0V29.3581Z" fill="#FF6200"/>
</svg>
